# xmcd
#
# Track frame offsets:
#	150
#	14159
#	32830
#	42307
#	58843
#	90819
#	102390
#	117639
#	129959
#	143955
#	157038
#	175952
#
# Disc length: 2601 seconds
#
# Revision: 0
# Processed by: cddbd v1.5.1PL0 Copyright (c) Steve Scherf et al.
# Submitted via: audiograbber 1.83.01
#
DISCID=a80a270c
DTITLE=Jackson, Alan - Under The Influence - Jackson, Alan - Under The Influenc
DTITLE=e
DYEAR=1999
DGENRE=Country
TTITLE0=Pop A Top
TTITLE1=Farewell Party
TTITLE2=Kiss An Angel Good Mornin'
TTITLE3=Right In The Palm Of Your Hand
TTITLE4=The Blues Man (A Tribute To Hank Williams, Jr.)
TTITLE5=Revenooer Man
TTITLE6=My Own Kind Of Hat
TTITLE7=She Just Started Liking Cheatin' Songs
TTITLE8=The Way I Am
TTITLE9=It Must Be Love
TTITLE10=Once You've Had The Best
TTITLE11=Margaritaville (With Jimmy Buffett)
EXTD=
EXTT0=
EXTT1=
EXTT2=
EXTT3=
EXTT4=
EXTT5=
EXTT6=
EXTT7=
EXTT8=
EXTT9=
EXTT10=
EXTT11=
PLAYORDER=
